<?xml version="1.0" encoding="UTF-8"?>
<svg width="327px" height="254px" viewBox="0 0 327 254" version="1.1" xmlns="http://www.w3.org/2000/svg" xmlns:xlink="http://www.w3.org/1999/xlink">
    <title>Group 13 Copy</title>
    <defs>
        <polygon id="path-1" points="0.2275 0.381 3.45215273 0.381 3.45215273 4.7051 0.2275 4.7051"></polygon>
        <polygon id="path-3" points="0 0.384931927 13.457 0.384931927 13.457 4.0971 0 4.0971"></polygon>
    </defs>
    <g id="Page-1" stroke="none" stroke-width="1" fill="none" fill-rule="evenodd">
        <g id="home-page-01-" transform="translate(-93.000000, -146.000000)">
            <g id="Group-13-Copy" transform="translate(256.500000, 273.000000) scale(-1, 1) rotate(-60.000000) translate(-256.500000, -273.000000) translate(201.000000, 117.000000)">
                <g id="Group-14-Copy" transform="translate(85.000000, 255.000000) rotate(90.000000) translate(-85.000000, -255.000000) translate(28.000000, 229.000000)" fill="#525D7D">
                    <path d="M106.741,44.378 C106.952,44.132 107.326,44.077 108.129,44.011 C108.131,44.011 108.286,44 108.288,44 C108.629,44.005 110.22,44.637 110.22,46.364 C110.22,47.561 109.645,48.117 108.412,48.117 C107.032,48.117 106,47.054 106,46.104 C106,45.557 106.27,44.928 106.741,44.378 M108.412,51.117 C111.288,51.117 113.22,49.208 113.22,46.364 C113.22,42.792 110.059,41 108.289,41 C108.186,41 108.082,41.004 107.883,41.021 C106.877,41.104 105.499,41.217 104.464,42.425 C103.519,43.526 103,44.832 103,46.104 C103,48.821 105.478,51.117 108.412,51.117" id="Fill-10"></path>
                    <path d="M6.9116,10.9859 C5.2406,10.9859 3.5126,9.4129 3.5126,6.7789 C3.5126,5.5119 3.9526,4.3449 4.7206,3.5779 C5.0926,3.2049 5.7986,2.9999 6.7086,2.9999 C9.8936,2.9999 11.7956,4.0929 11.7956,5.9249 C11.7956,8.3379 9.2396,10.9859 6.9116,10.9859 M14.7956,5.9249 C14.7956,3.1919 12.6776,-0.0001 6.7086,-0.0001 C4.9726,-0.0001 3.5506,0.5039 2.5986,1.4559 C1.2726,2.7829 0.5126,4.7219 0.5126,6.7789 C0.5126,10.8209 3.3236,13.9859 6.9116,13.9859 C10.8906,13.9859 14.7956,9.9929 14.7956,5.9249" id="Fill-12"></path>
                </g>
                <g id="Group-9">
                    <path d="M6.3316,8.4678 C5.9436,8.4678 5.6066,8.4688 5.2876,8.4708 C5.3396,9.3458 5.4086,10.2138 5.4776,11.0668 L5.5706,12.2338 C5.6316,13.0208 6.2886,13.6188 7.0646,13.6188 C7.1036,13.6188 7.1426,13.6168 7.1816,13.6148 C8.0076,13.5518 8.6256,12.8298 8.5616,12.0038 L8.4676,10.8238 C8.3926,9.9018 8.3266,9.0088 8.2766,8.1248 C7.9146,8.1428 7.5556,8.1608 7.2146,8.1808 C6.9666,8.3618 6.6616,8.4678 6.3316,8.4678" id="Fill-1" fill="#525D7D"></path>
                    <g id="Group-5" transform="translate(5.000000, 0.619200)">
                        <mask id="mask-2" fill="white">
                            <use xlink:href="#path-1"></use>
                        </mask>
                        <g id="Clip-4"></g>
                        <path d="M3.2345,4.4941 C3.2635,3.6541 3.3195,2.8541 3.4345,2.1091 C3.5605,1.2911 2.9985,0.5251 2.1795,0.3991 C1.3575,0.2691 0.5945,0.8351 0.4695,1.6541 C0.3225,2.6101 0.2535,3.6271 0.2275,4.7051 C0.6535,4.6551 1.1375,4.6231 1.6895,4.5881 C2.2545,4.5541 2.7595,4.5221 3.2345,4.4941" id="Fill-3" fill="#525D7D" mask="url(#mask-2)"></path>
                    </g>
                    <g id="Group-8" transform="translate(0.000000, 4.619200)">
                        <mask id="mask-4" fill="white">
                            <use xlink:href="#path-3"></use>
                        </mask>
                        <g id="Clip-7"></g>
                        <path d="M8.2345,0.4941 C7.7595,0.5221 7.2545,0.5541 6.6895,0.5881 C6.1375,0.6231 5.6535,0.6551 5.2275,0.7051 C4.8925,0.7441 4.5905,0.7921 4.3385,0.8641 C3.4255,0.8891 2.5695,0.9511 1.3145,1.1081 C0.4925,1.2111 -0.0915,1.9601 0.0115,2.7831 C0.1065,3.5421 0.7525,4.0971 1.4985,4.0971 C1.5605,4.0971 1.6235,4.0931 1.6865,4.0851 C3.1905,3.8971 4.0505,3.8591 5.2875,3.8511 C5.6065,3.8491 5.9435,3.8481 6.3315,3.8481 C6.6615,3.8481 6.9665,3.7421 7.2145,3.5611 C7.5555,3.5421 7.9155,3.5231 8.2765,3.5061 C9.0455,3.4681 9.8225,3.4361 10.4485,3.4191 C10.7145,3.5631 11.0275,3.6301 11.3495,3.5891 C12.0765,3.4981 13.5885,3.3081 13.4485,1.8121 C13.3105,0.3381 12.5705,0.2391 8.2345,0.4941" id="Fill-6" fill="#525D7D" mask="url(#mask-4)"></path>
                    </g>
                </g>
            </g>
        </g>
    </g>
</svg>