<?xml version="1.0" encoding="UTF-8"?>
<svg width="521px" height="444px" viewBox="0 0 521 444" version="1.1" xmlns="http://www.w3.org/2000/svg" xmlns:xlink="http://www.w3.org/1999/xlink">
    <title>illu-01</title>
    <defs>
        <linearGradient x1="76.3511955%" y1="50.5739576%" x2="506.005627%" y2="59.9716585%" id="linearGradient-1">
            <stop stop-color="#C4D6E8" offset="0%"></stop>
            <stop stop-color="#8EA1C6" offset="100%"></stop>
        </linearGradient>
        <linearGradient x1="-67.1634809%" y1="49.3306682%" x2="38.7540406%" y2="49.9362208%" id="linearGradient-2">
            <stop stop-color="#C4D6E8" offset="0%"></stop>
            <stop stop-color="#8EA1C6" offset="100%"></stop>
        </linearGradient>
        <linearGradient x1="8.67539084%" y1="49.7542423%" x2="211.36764%" y2="50.9581398%" id="linearGradient-3">
            <stop stop-color="#C4D6E8" offset="0%"></stop>
            <stop stop-color="#8EA1C6" offset="100%"></stop>
        </linearGradient>
        <linearGradient x1="0.000497296242%" y1="50.0008275%" x2="99.9997666%" y2="50.0008275%" id="linearGradient-4">
            <stop stop-color="#1A97DF" offset="0%"></stop>
            <stop stop-color="#605BE8" offset="100%"></stop>
        </linearGradient>
        <linearGradient x1="-902.216448%" y1="24.957211%" x2="-300.83021%" y2="40.7610669%" id="linearGradient-5">
            <stop stop-color="#C4D6E8" offset="0%"></stop>
            <stop stop-color="#8EA1C6" offset="100%"></stop>
        </linearGradient>
        <linearGradient x1="-314.25094%" y1="40.5998114%" x2="267.359125%" y2="55.5750423%" id="linearGradient-6">
            <stop stop-color="#C4D6E8" offset="0%"></stop>
            <stop stop-color="#8EA1C6" offset="100%"></stop>
        </linearGradient>
        <linearGradient x1="-275.022487%" y1="48.5053717%" x2="333.727765%" y2="51.1020357%" id="linearGradient-7">
            <stop stop-color="#C4D6E8" offset="0%"></stop>
            <stop stop-color="#8EA1C6" offset="100%"></stop>
        </linearGradient>
        <linearGradient x1="-0.00022010622%" y1="49.9998914%" x2="100.000779%" y2="49.9998914%" id="linearGradient-8">
            <stop stop-color="#2D8EDD" offset="0%"></stop>
            <stop stop-color="#F2F2F2" offset="100%"></stop>
        </linearGradient>
        <linearGradient x1="-0.00022010622%" y1="49.9996739%" x2="100.000779%" y2="49.9996739%" id="linearGradient-9">
            <stop stop-color="#2D8EDD" offset="0%"></stop>
            <stop stop-color="#F2F2F2" offset="100%"></stop>
        </linearGradient>
        <linearGradient x1="-0.000438763152%" y1="49.9997779%" x2="99.9994577%" y2="49.9997779%" id="linearGradient-10">
            <stop stop-color="#2D8EDD" offset="0%"></stop>
            <stop stop-color="#F2F2F2" offset="100%"></stop>
        </linearGradient>
        <linearGradient x1="-0.000438763152%" y1="49.999879%" x2="99.9994577%" y2="49.999879%" id="linearGradient-11">
            <stop stop-color="#2D8EDD" offset="0%"></stop>
            <stop stop-color="#F2F2F2" offset="100%"></stop>
        </linearGradient>
        <path d="M0.760186364,4.00529382 L0.687364773,29.4485764 C2.20596136,28.5982427 2.96437159,27.4861364 2.9697,26.3706081 L2.9697,26.3706081 L3.04429773,0.927325609 C3.04074545,2.04285383 2.28055909,3.15496019 0.760186364,4.00529382" id="path-12"></path>
        <linearGradient x1="51.3039458%" y1="49.4450204%" x2="24.0403547%" y2="61.0517546%" id="linearGradient-14">
            <stop stop-color="#ACBDE8" offset="0%"></stop>
            <stop stop-color="#8EA1C6" offset="100%"></stop>
        </linearGradient>
        <path d="M0.0662982525,26.3278348 C0.0631515152,27.4570505 0.749924242,28.5879771 2.12662727,29.4502873 L2.12662727,29.4502873 L2.19451515,4.00529382 C0.817812121,3.14469459 0.129460606,2.01376797 0.132618182,0.884552288 L0.132618182,0.884552288 L0.0662982525,26.3278348 Z" id="path-15"></path>
        <linearGradient x1="74.7226025%" y1="36.8645514%" x2="52.9084098%" y2="48.4530402%" id="linearGradient-17">
            <stop stop-color="#ACBDE8" offset="0%"></stop>
            <stop stop-color="#8EA1C6" offset="100%"></stop>
        </linearGradient>
        <linearGradient x1="97.936313%" y1="48.0191019%" x2="-61.5400961%" y2="54.6086983%" id="linearGradient-18">
            <stop stop-color="#ACBDE8" offset="0%"></stop>
            <stop stop-color="#8EA1C6" offset="100%"></stop>
        </linearGradient>
        <linearGradient x1="192.879088%" y1="44.1349234%" x2="32.355863%" y2="50.7245072%" id="linearGradient-19">
            <stop stop-color="#ACBDE8" offset="0%"></stop>
            <stop stop-color="#8EA1C6" offset="100%"></stop>
        </linearGradient>
        <linearGradient x1="127.323822%" y1="42.2227277%" x2="-1.60254621%" y2="54.6089328%" id="linearGradient-20">
            <stop stop-color="#ACBDE8" offset="0%"></stop>
            <stop stop-color="#8EA1C6" offset="100%"></stop>
        </linearGradient>
        <polygon id="path-21" points="0.0311021212 14.835762 24.9391648 29.5966224 49.6859939 14.835762 24.7779311 0.0766435986"></polygon>
        <linearGradient x1="-0.00165738114%" y1="49.99794%" x2="100.002411%" y2="49.99794%" id="linearGradient-23">
            <stop stop-color="#1A97DF" offset="0%"></stop>
            <stop stop-color="#605BE8" offset="100%"></stop>
        </linearGradient>
        <linearGradient x1="51.3039443%" y1="49.4432751%" x2="24.0436238%" y2="61.0493132%" id="linearGradient-24">
            <stop stop-color="#ACBDE8" offset="0%"></stop>
            <stop stop-color="#8EA1C6" offset="100%"></stop>
        </linearGradient>
        <linearGradient x1="81.2934964%" y1="36.8619886%" x2="53.6815499%" y2="48.4511938%" id="linearGradient-25">
            <stop stop-color="#ACBDE8" offset="0%"></stop>
            <stop stop-color="#8EA1C6" offset="100%"></stop>
        </linearGradient>
        <linearGradient x1="97.9375871%" y1="48.0197946%" x2="-61.5445178%" y2="54.6093628%" id="linearGradient-26">
            <stop stop-color="#ACBDE8" offset="0%"></stop>
            <stop stop-color="#8EA1C6" offset="100%"></stop>
        </linearGradient>
        <linearGradient x1="189.559437%" y1="44.1338698%" x2="32.7653031%" y2="50.7236545%" id="linearGradient-27">
            <stop stop-color="#ACBDE8" offset="0%"></stop>
            <stop stop-color="#8EA1C6" offset="100%"></stop>
        </linearGradient>
        <linearGradient x1="127.312526%" y1="42.2242257%" x2="-1.59154889%" y2="54.6102561%" id="linearGradient-28">
            <stop stop-color="#ACBDE8" offset="0%"></stop>
            <stop stop-color="#8EA1C6" offset="100%"></stop>
        </linearGradient>
        <linearGradient x1="-0.00373380729%" y1="49.9990506%" x2="100.000367%" y2="49.9990506%" id="linearGradient-29">
            <stop stop-color="#1A97DF" offset="0%"></stop>
            <stop stop-color="#605BE8" offset="100%"></stop>
        </linearGradient>
    </defs>
    <g id="Page-1" stroke="none" stroke-width="1" fill="none" fill-rule="evenodd">
        <g id="home-page-01-" transform="translate(-674.000000, -224.000000)">
            <g id="Group-2" transform="translate(674.000000, 224.692495)">
                <path d="M146.194703,279.283509 C150.173632,281.581705 150.19587,285.300884 146.259707,287.58711 L144.903176,288.373695 L62.327561,336.343406 L60.4988957,337.405296 C56.5456257,339.703492 50.120493,339.703492 46.1415636,337.405296 L2.99772087,312.506463 C-0.981208519,310.209977 -1.0017361,306.490798 2.95153382,304.194312 L4.78019913,303.130712 L87.3558137,255.162711 L88.7106341,254.376126 C92.6485083,252.08819 99.0719304,252.08819 103.05086,254.382966 L146.194703,279.283509 Z" id="Fill-1" fill="#243456"></path>
                <g id="Group" transform="translate(151.563616, 324.915039)">
                    <path d="M146.194723,57.4192724 C150.173652,59.7174683 150.195891,63.4366471 146.259727,65.7228733 L144.903196,66.5094582 L62.3275814,114.479169 L60.498916,115.541059 C56.5456461,117.839255 50.1205134,117.839255 46.141584,115.541059 L2.99774126,90.6422259 C-0.98118813,88.3457399 -1.00171571,84.6265612 2.9515542,82.3300751 L4.78021952,81.2664755 L87.3558341,33.2984745 L88.7106544,32.5118895 C92.6485287,30.2239534 99.0719508,30.2239534 103.05088,32.5187294 L146.194723,57.4192724 Z" id="Fill-1-Copy" fill="#243456"></path>
                    <path d="M-4.89033056e-14,76.4793305 C-0.00530801968,77.9485743 1.03373175,79.4178182 3.1118113,80.5388214 L3.1118113,80.5388214 L3.12602039,76.4677225 C1.04616471,75.3483775 0.00890107123,73.8774754 0.012453344,72.4098898 L0.012453344,72.4098898 L-4.89033056e-14,76.4793305 Z" id="Fill-9-Copy" fill="url(#linearGradient-1)"></path>
                    <polygon id="Fill-12-Copy" fill="url(#linearGradient-2)" points="62.3328132 99.9057849 62.3208031 104.123532 145.140495 55.8919734 145.152505 51.6707879"></polygon>
                    <polygon id="Fill-18-Copy" fill="url(#linearGradient-3)" points="2.48551829 80.9334415 46.1345704 105.848046 46.144954 101.647706 2.49936305 76.7331013"></polygon>
                    <path d="M146.801103,43.1788592 C150.796199,45.4897649 150.818528,49.2295117 146.866371,51.5283814 L145.504328,52.3193164 L62.5931894,100.554313 L60.7570938,101.622076 C56.7877608,103.931262 50.3365213,103.931262 46.3414246,101.622076 L3.02227841,76.585545 C-0.972818292,74.2763588 -0.993429281,70.536612 2.97590369,68.2257063 L4.81199929,67.1579441 L87.7231378,18.9246666 L89.083463,18.1337316 C93.0373378,15.8331425 99.4868597,15.8331425 103.481956,18.1423287 L146.801103,43.1788592 Z" id="Fill-24-Copy" fill="#DEE7FF"></path>
                    <path d="M125.639113,35.387634 C125.968889,35.57849 125.970607,35.8845475 125.642548,36.0736841 C125.31449,36.2662596 124.787192,36.2662596 124.457416,36.0736841 L115.82313,31.0839161 C115.493354,30.8947795 115.491636,30.5887221 115.819694,30.397866 C116.147753,30.20701 116.67505,30.20701 117.004826,30.397866 L125.639113,35.387634 Z" id="Fill-26-Copy" fill="#2E2F44"></path>
                    <path d="M129.003857,36.781399 C129.580965,37.1149672 129.5844,37.6686217 128.993552,38.0125064 C128.402703,38.3563912 127.449445,38.3563912 126.87062,38.022823 C126.276336,37.6772188 126.274619,37.1252837 126.863749,36.781399 C127.454598,36.4375142 128.409574,36.4375142 129.003857,36.781399" id="Fill-28-Copy" fill="#2E2F44"></path>
                    <path d="M26.4135181,88.0970876 C27.9662126,88.9929075 30.465295,88.9929075 31.9922258,88.1074042 C33.517439,87.218462 33.508851,85.7689878 31.9578741,84.8714485 C30.4223554,83.9842258 27.9198379,83.9842258 26.3946247,84.8714485 C24.8694115,85.7603906 24.8779994,87.2081455 26.4135181,88.0970876 M32.8750631,84.3367077 C34.9224214,85.5213907 34.9344445,87.4488648 32.8991093,88.6318284 C30.8654917,89.814792 27.5419697,89.814792 25.4946115,88.6318284 C23.4472532,87.4488648 23.4369478,85.5213907 25.4705653,84.3367077 C27.5041829,83.1537441 30.8277049,83.1537441 32.8750631,84.3367077" id="Fill-30-Copy" fill="#2E2F44"></path>
                    <g id="Group-34-Copy" transform="translate(4.619276, 18.913662)" fill="url(#linearGradient-4)">
                        <polygon id="Fill-32" points="140.894327 33.4015275 57.9660124 81.6434022 0.184822278 48.2487524 83.111419 0.00515827152"></polygon>
                    </g>
                    <g id="Group-37-Copy" transform="translate(4.619276, 18.913662)" fill="#243456">
                        <polygon id="Fill-35" points="140.894327 33.4015275 57.9660124 81.6434022 0.184822278 48.2487524 83.111419 0.00515827152"></polygon>
                    </g>
                    <g id="Group-46-Copy" transform="translate(4.619276, 0.000000)" fill="#FFCC00">
                        <polygon id="Fill-44" points="140.894327 33.7299375 57.9660124 81.975251 0.184822278 48.5788817 83.111419 0.333568225"></polygon>
                    </g>
                </g>
                <polygon id="Fill-6" fill="url(#linearGradient-5)" points="145.727252 274.151859 145.714819 278.51375 147.123295 277.694674 147.135728 273.334559"></polygon>
                <polygon id="Fill-12" fill="url(#linearGradient-2)" points="62.3327928 321.770022 62.3207827 325.987768 145.140475 277.75621 145.152485 273.535025"></polygon>
                <polygon id="Fill-15" fill="url(#linearGradient-6)" points="61.0529114 323.321305 61.0387023 327.683197 62.9391682 326.576289 62.9516011 322.217951"></polygon>
                <polygon id="Fill-18" fill="url(#linearGradient-3)" points="2.4854979 302.797678 46.13455 327.712283 46.1449336 323.511943 2.49934266 298.597338"></polygon>
                <path d="M46.6200273,322.729059 L46.6100809,327.090951 C50.4642968,329.47711 56.6907205,329.47711 60.5217282,327.090951 L60.5217282,327.090951 L60.53499,322.729059 C56.7023245,325.115218 50.4775586,325.115218 46.6200273,322.729059" id="Fill-21" fill="url(#linearGradient-7)"></path>
                <path d="M146.801082,265.043096 C150.796179,267.354002 150.818507,271.093749 146.86635,273.392618 L145.504307,274.183553 L62.593169,322.41855 L60.7570734,323.486312 C56.7877404,325.795499 50.3365009,325.795499 46.3414042,323.486312 L3.02225802,298.449782 C-0.972838681,296.140596 -0.99344967,292.400849 2.9758833,290.089943 L4.8119789,289.022181 L87.7231174,240.788903 L89.0834426,239.997969 C93.0373174,237.697379 99.4868393,237.697379 103.481936,240.006566 L146.801082,265.043096 Z" id="Fill-24" fill="#DEE7FF"></path>
                <path d="M125.639093,257.251871 C125.968869,257.442727 125.970586,257.748784 125.642528,257.937921 C125.31447,258.130496 124.787172,258.130496 124.457396,257.937921 L115.823109,252.948153 C115.493333,252.759016 115.491616,252.452959 115.819674,252.262103 C116.147732,252.071247 116.67503,252.071247 117.004806,252.262103 L125.639093,257.251871 Z" id="Fill-26" fill="#2E2F44"></path>
                <path d="M129.003837,258.645636 C129.580944,258.979204 129.58438,259.532859 128.993531,259.876743 C128.402683,260.220628 127.449425,260.220628 126.870599,259.88706 C126.276316,259.541456 126.274598,258.989521 126.863729,258.645636 C127.454577,258.301751 128.409553,258.301751 129.003837,258.645636" id="Fill-28" fill="#2E2F44"></path>
                <path d="M26.4134977,309.961325 C27.9661922,310.857144 30.4652746,310.857144 31.9922054,309.971641 C33.5174186,309.082699 33.5088307,307.633225 31.9578537,306.735685 C30.4223351,305.848463 27.9198175,305.848463 26.3946043,306.735685 C24.8693911,307.624628 24.877979,309.072382 26.4134977,309.961325 M32.8750427,306.200945 C34.922401,307.385628 34.9344241,309.313102 32.8990889,310.496065 C30.8654713,311.679029 27.5419493,311.679029 25.4945911,310.496065 C23.4472329,309.313102 23.4369274,307.385628 25.4705449,306.200945 C27.5041625,305.017981 30.8276845,305.017981 32.8750427,306.200945" id="Fill-30" fill="#2E2F44"></path>
                <g id="Group-34" transform="translate(4.619256, 240.777899)" fill="url(#linearGradient-4)">
                    <polygon id="Fill-32" points="140.894327 33.4015275 57.9660124 81.6434022 0.184822278 48.2487524 83.111419 0.00515827152"></polygon>
                </g>
                <g id="Group-37" transform="translate(4.619256, 240.777899)" fill="#243456">
                    <polygon id="Fill-35" points="140.894327 33.4015275 57.9660124 81.6434022 0.184822278 48.2487524 83.111419 0.00515827152"></polygon>
                </g>
                <g id="Group-46" transform="translate(4.619256, 221.864237)" fill="#FFCC00">
                    <polygon id="Fill-44" points="140.894327 33.7299375 57.9660124 81.975251 0.184822278 48.5788817 83.111419 0.333568225"></polygon>
                </g>
                <polygon id="Fill-120" fill="#2D3138" points="298.390909 232.189722 297.798282 232.524665 297.203961 232.189722 288.756479 227.436171 288.160465 227.101228 279.445455 222.19918 280.038082 221.864237 288.7514 226.766285 289.347413 227.101228 297.794895 231.854779"></polygon>
                <path d="M148.048514,243.397632 C148.151331,243.457812 148.243867,243.519712 148.329548,243.58505 C149.24805,244.286575 149.169223,245.297596 148.062223,245.94238 C146.854119,246.647343 144.890308,246.640466 143.683918,245.94238 C142.467246,245.237416 142.460392,244.102596 143.670209,243.397632 C144.777209,242.752848 146.507968,242.697827 147.728067,243.234287 C147.837738,243.28415 147.945697,243.337453 148.048514,243.397632" id="Fill-121" fill="#FFFFFF"></path>
                <polygon id="Fill-123" fill="#FFFFFF" points="185.192647 166.377761 184.592879 166.726804 175.774579 161.618396 175.171384 161.269353 166.611841 156.310534 166.018928 155.96665 166.618696 155.617607 167.209895 155.959772 175.769438 160.92031 176.374347 161.269353"></polygon>
                <path d="M104.859921,192.317677 C104.697127,192.18872 104.515483,192.064921 104.314989,191.948001 C104.109355,191.827641 103.891725,191.721037 103.662099,191.626468 L227.778045,119.2542 C227.944266,119.384876 228.129337,119.512113 228.334972,119.630753 C228.535466,119.747674 228.749669,119.852559 228.97244,119.947127 L167.210067,155.96046 L166.618867,155.618294 L166.019099,155.967337 L166.612012,156.309503 L104.859921,192.317677 Z" id="Fill-125" fill="#243456"></path>
                <path d="M101.728791,194.143017 L103.651475,195.257204 C103.50753,195.393038 103.334455,195.521995 103.132247,195.640635 C102.926612,195.760995 102.700414,195.862441 102.462221,195.948412 L99.345142,194.143017 L102.451939,192.332464 C102.691846,192.416716 102.918044,192.519881 103.127106,192.640241 C103.331027,192.757161 103.504103,192.887838 103.649761,193.023672 L101.728791,194.143017 Z" id="Fill-127" fill="#FFFFFF"></path>
                <path d="M102.461707,195.948928 C102.701614,195.862957 102.926098,195.761511 103.131733,195.641151 C103.33394,195.522511 103.507016,195.393554 103.650961,195.25772 C104.377536,194.575108 104.374109,193.70336 103.649247,193.022469 C103.503589,192.886634 103.330513,192.757677 103.126592,192.640757 C102.919244,192.518677 102.691332,192.417231 102.453139,192.33126 C101.0394,191.829188 99.1698384,191.930634 97.9531666,192.640757 C96.5308601,193.469519 96.5377146,194.817547 97.9685892,195.646309 C99.185261,196.351273 101.056536,196.451 102.461707,195.948928" id="Path" fill="#FFFFFF"></path>
                <path d="M104.869346,195.962683 C104.708266,196.09164 104.528335,196.215439 104.327841,196.332359 C104.12392,196.451 103.90629,196.557604 103.680092,196.653892 C101.599755,197.532517 98.6660335,197.431071 96.7827626,196.339237 C94.6938571,195.128763 94.6818617,193.156584 96.7570583,191.947829 C98.6300474,190.855995 101.570623,190.74939 103.662956,191.626296 C103.890868,191.722584 104.108498,191.829188 104.314132,191.947829 C104.514626,192.06475 104.697984,192.188548 104.859064,192.317505 C106.21968,193.400742 106.221394,194.879446 104.869346,195.962683" id="Path" fill="#243456"></path>
                <polygon id="Fill-131" fill="#2D3138" points="232.148124 128.045958 346.244521 194.142329 289.866349 227.015994 289.263154 226.666951 345.041558 194.142329 232.151552 128.744044 176.373147 161.268665 175.769952 160.919622"></polygon>
                <path d="M104.32767,196.332531 C104.528164,196.215611 104.708094,196.091812 104.869175,195.962855 L167.035963,231.976188 L165.848422,232.667396 L103.679921,196.654064 C103.906119,196.557776 104.123749,196.451172 104.32767,196.332531" id="Fill-133" fill="#243456"></path>
                <path d="M175.839697,226.84216 L176.442892,227.191203 L176.143008,227.366584 L167.638301,232.325403 L166.450761,233.01833 L152.183142,241.336903 C152.088892,241.276723 151.991216,241.216543 151.888399,241.158083 C151.787295,241.099622 151.686191,241.042881 151.579947,240.98786 L165.847565,232.667568 L167.035106,231.97636 L175.541527,227.017541 L175.839697,226.84216 Z" id="Fill-135" fill="#243456"></path>
                <path d="M141.030888,247.48883 C143.712707,249.043189 148.060167,249.036311 150.723136,247.483671 C153.285001,245.987773 153.37925,243.592615 150.993888,242.031378 C150.901352,241.969479 150.803676,241.909299 150.702572,241.850839 C150.599755,241.792378 150.496937,241.735637 150.390693,241.682335 C147.693451,240.299918 143.563622,240.356659 140.998329,241.850839 C138.33536,243.403478 138.350783,245.93619 141.030888,247.48883" id="Path" fill="#FFFFFF"></path>
                <path d="M152.183142,241.336731 C155.224821,243.281399 155.144281,246.307585 151.929526,248.181757 C148.611953,250.116109 143.181484,250.116109 139.843348,248.181757 C136.49493,246.242247 136.488076,243.092263 139.803935,241.157911 C143.020404,239.283739 148.216106,239.22012 151.579947,240.987688 C151.686191,241.04271 151.787295,241.099451 151.888399,241.157911 C151.991216,241.216371 152.088892,241.276551 152.183142,241.336731" id="Path" fill="#243456"></path>
                <polygon id="Fill-139" fill="#243456" points="232.886181 259.541475 288.664586 227.015134 289.266067 227.365896 232.889609 260.239561 176.143008 227.365896 176.442892 227.192235 175.839697 226.841472 175.541527 227.016853 118.793212 194.143189 175.171384 161.269525 175.774579 161.618568 119.996175 194.143189"></polygon>
                <path d="M360.179526,195.954774 C360.345747,196.08717 360.529104,196.212688 360.734739,196.331328 C360.940374,196.449968 361.158004,196.558292 361.385916,196.65286 L237.26997,269.025129 C237.105462,268.892733 236.920391,268.767215 236.714756,268.646856 C236.510835,268.529935 236.291492,268.421611 236.06358,268.327043 L297.817385,232.318869 L298.418866,232.667912 L299.018634,232.318869 L298.415439,231.968106 L360.179526,195.954774 Z" id="Fill-141" fill="#243456"></path>
                <path d="M518.631818,289.38028 C518.79804,289.512675 520.772088,290.470203 521,290.564772 L395.938152,363.784487 C395.773644,363.652092 395.588573,363.526574 395.382938,363.406214 C395.179017,363.289293 394.959673,363.180969 394.731762,363.086401 L456.485567,327.078227 L457.087048,327.42727 L457.686816,327.078227 L457.083621,326.727465 L518.631818,289.38028 Z" id="Fill-141-Copy" fill="#243456"></path>
                <path d="M229.793607,268.331685 C229.57255,268.426254 229.360061,268.531138 229.157854,268.649779 C228.955646,268.7667 228.772289,268.893937 228.607781,269.024613 L166.451275,233.018158 L167.638815,232.325231 L229.793607,268.331685 Z" id="Fill-143" fill="#243456"></path>
                <path d="M230.370927,272.348259 C231.803515,273.177022 234.122046,273.177022 235.544352,272.348259 C236.761024,271.638137 236.930673,270.549742 236.060153,269.731296 C235.911067,269.592023 235.734564,269.459627 235.527216,269.340987 C235.319868,269.220627 235.09367,269.117462 234.853762,269.031491 C233.676504,268.611951 232.182225,268.613671 231.011821,269.036649 C230.777055,269.12262 230.555998,269.224066 230.35379,269.340987 C230.148156,269.461347 229.973366,269.592023 229.825995,269.733016 C228.964043,270.549742 229.1474,271.638137 230.370927,272.348259" id="Path" fill="#FFFFFF"></path>
                <path d="M237.26997,269.024613 C238.784812,270.238526 238.611736,271.949353 236.738747,273.039468 C234.66355,274.248223 231.272292,274.249942 229.183386,273.039468 C227.300116,271.949353 227.106476,270.238526 228.609323,269.024613 C228.772117,268.893937 228.955475,268.7667 229.157682,268.649779 C229.35989,268.531138 229.572379,268.426254 229.793436,268.331685 C231.651003,267.545909 234.195732,267.544189 236.06358,268.326527 C236.291492,268.422815 236.510835,268.529419 236.714756,268.648059 C236.920391,268.7667 237.105462,268.892217 237.26997,269.024613" id="Path" fill="#243456"></path>
                <path d="M362.596076,195.947209 C364.0081,196.451 365.877662,196.349554 367.084052,195.646309 C368.508072,194.815828 368.499504,193.469519 367.066916,192.639037 C365.845103,191.930634 363.972114,191.827469 362.56523,192.33126 C362.327037,192.415512 362.102552,192.518677 361.895204,192.639037 C361.692997,192.757677 361.519921,192.886634 361.375977,193.022469 C360.661396,193.699922 360.664823,194.566511 361.391399,195.249122 C361.538771,195.386676 361.715274,195.519072 361.922622,195.639432 C362.131684,195.759791 362.356169,195.861237 362.596076,195.947209" id="Path" fill="#FFFFFF"></path>
                <path d="M368.25617,191.946109 C370.343362,193.156584 370.355357,195.127043 368.280161,196.337518 C366.408885,197.429352 363.476877,197.530798 361.386258,196.653892 C361.158347,196.555885 360.940717,196.451 360.735082,196.332359 C360.529447,196.212 360.34609,196.086482 360.179868,195.954086 C358.826107,194.872569 358.812398,193.397303 360.157591,192.315785 C360.320385,192.186829 360.498602,192.06303 360.700809,191.946109 C360.90473,191.827469 361.120647,191.720865 361.346845,191.624577 C363.428896,190.747671 366.371185,190.855995 368.25617,191.946109" id="Path" fill="#FFFFFF"></path>
                <path d="M234.014944,119.241476 C234.249711,119.157224 234.470768,119.057497 234.672975,118.938857 C234.87861,118.818498 235.055113,118.686102 235.200771,118.548548 C236.062723,117.728383 235.881079,116.641707 234.666121,115.938463 C233.233533,115.107981 230.916715,115.107981 229.492695,115.938463 C228.286305,116.641707 228.11837,117.730102 228.98889,118.548548 C229.136262,118.686102 229.314479,118.818498 229.521827,118.938857 C229.725748,119.057497 229.946805,119.157224 230.183285,119.241476 C231.353689,119.661015 232.847968,119.661015 234.014944,119.241476" id="Path" fill="#FFFFFF"></path>
                <path d="M236.419156,119.253512 C236.254649,119.385907 236.071291,119.513145 235.869084,119.631785 C235.66859,119.746986 235.456101,119.851871 235.23333,119.94644 C233.375763,120.735655 230.837889,120.735655 228.971754,119.948159 C228.748983,119.851871 228.53478,119.746986 228.334287,119.631785 C228.128652,119.511425 227.945294,119.385907 227.779073,119.253512 C226.262517,118.041318 226.427025,116.337369 228.298301,115.245535 C230.373497,114.03506 233.764756,114.03506 235.853661,115.245535 C237.738646,116.337369 237.922003,118.041318 236.419156,119.253512" id="Path" fill="#FFFFFF"></path>
                <path d="M235.868227,119.630925 C236.072148,119.512285 236.255505,119.385048 236.4183,119.254371 L361.348216,191.624921 C361.120304,191.721209 360.904388,191.827813 360.700467,191.946453 C360.498259,192.063374 360.320043,192.187172 360.157248,192.316129 L235.234187,119.947299 C235.455244,119.852731 235.667733,119.747846 235.868227,119.630925" id="Fill-153" fill="#243456"></path>
                <path d="M362.565916,192.33126 L365.691563,194.141814 L362.596761,195.947209 C362.356854,195.861237 362.130656,195.759791 361.923308,195.639432 C361.715959,195.519072 361.537743,195.386676 361.390371,195.249122 L363.299346,194.134936 L361.376662,193.022469 C361.520606,192.886634 361.691969,192.757677 361.894176,192.639037 C362.101524,192.518677 362.326009,192.415512 362.565916,192.33126" id="Fill-155" fill="#FFFFFF"></path>
                <path d="M232.084549,116.742809 L235.199914,118.548204 C235.054256,118.685758 234.879467,118.818154 234.672119,118.938513 C234.471625,119.057154 234.248854,119.15688 234.014088,119.241132 L232.093117,118.126945 L230.182428,119.241132 C229.947662,119.15688 229.724891,119.057154 229.52097,118.938513 C229.313622,118.818154 229.137119,118.685758 228.989747,118.548204 L232.084549,116.742809 Z" id="Fill-157" fill="#FFFFFF"></path>
                <path d="M150.390521,241.681475 C150.496766,241.734778 150.601297,241.791519 150.702401,241.851698 C150.803504,241.908439 150.901181,241.968619 150.993716,242.030519 L148.329034,243.584878 C148.245066,243.51954 148.150817,243.45764 148.048,243.39746 C147.946896,243.337281 147.838938,243.283979 147.727552,243.234115 L150.390521,241.681475 Z" id="Fill-159" fill="#FFCC00"></path>
                <polygon id="Fill-162" fill="#434651" points="318.520455 179.607151 318.481003 193.436429 232.081818 143.303141 232.119555 129.473863"></polygon>
                <polygon id="Fill-163" fill="#FFFFFF" points="316.152273 179.562229 316.112809 193.436429 232.081818 144.534284 232.121281 130.658355"></polygon>
                <polygon id="Fill-164" fill="#434651" points="233.265909 228.124671 233.226446 242.000601 149.195455 193.096726 149.234918 179.222526"></polygon>
                <polygon id="Fill-165" fill="#FFFFFF" points="233.265909 229.355814 233.226457 243.185093 146.827273 193.051804 146.866724 179.222526"></polygon>
                <polygon id="Fill-166" fill="#434651" points="233.265909 129.473863 233.227925 143.302768 146.827273 193.436429 146.866983 179.607524"></polygon>
                <polygon id="Fill-167" fill="#FFFFFF" points="161.14159 186.329478 233.226169 144.500223 233.265909 130.658355 149.195455 179.442186"></polygon>
                <polygon id="Path" fill="#FFFFFF" points="233.540514 227.592394 317.311435 179.22167 232.993026 130.850947 149.222105 179.223381"></polygon>
                <polygon id="Path" fill="#FFFFFF" points="232.984417 129.473863 319.704545 179.22167 233.547401 228.971189 146.827273 179.223381"></polygon>
                <polygon id="Fill-169" fill="#434651" points="317.336364 179.222526 233.539737 227.786697 149.195455 179.222526 232.992081 130.658355"></polygon>
                <polygon id="Fill-170" fill="#FFFFFF" points="317.336364 179.222526 317.296643 193.096344 233.265909 242.000601 233.30563 228.125053"></polygon>
                <polygon id="Fill-171" fill="#FFFFFF" points="319.704545 179.222526 319.664836 193.051431 233.265909 243.185093 233.305618 229.356187"></polygon>
                <polygon id="Fill-172" fill="#2D3138" points="327.993182 179.222526 327.953746 192.960578 233.265909 247.92306 233.305345 234.183296"></polygon>
                <polygon id="Path" fill="#434651" points="232.955153 229.726008 319.05041 179.813914 232.390854 129.903535 146.297318 179.81563"></polygon>
                <polygon id="Path" fill="#434651" points="232.363327 124.735895 327.993182 179.813914 232.9844 234.893649 137.354545 179.81563"></polygon>
                <polygon id="Fill-174" fill="#393C44" points="233.265909 234.182954 233.226239 247.92306 137.354545 192.96092 137.394215 179.222526"></polygon>
                <polygon id="Fill-175" fill="#243456" points="308.826836 151.368081 308.751262 178.913528 231.709103 223.661575 231.786394 196.116128"></polygon>
                <polygon id="Fill-178" fill="#243456" points="231.786394 196.116128 231.709103 223.661575 154.161974 178.913528 154.240983 151.369798"></polygon>
                <polygon id="Fill-181" fill="url(#linearGradient-8)" points="308.826836 151.368081 231.786394 196.116128 154.240983 151.369798 231.283142 106.621751"></polygon>
                <polyline id="Stroke-185" stroke="#FFFFFF" stroke-width="0.5" stroke-linecap="round" stroke-linejoin="round" points="155.115909 150.794718 232.332377 195.805413 309.047727 150.794718"></polyline>
                <line x1="232.700506" y1="195.805413" x2="232.647222" y2="223.048729" id="Stroke-186" stroke="#FFFFFF" stroke-width="0.5" stroke-linecap="round" stroke-linejoin="round"></line>
                <polygon id="Fill-187" fill="#243456" points="308.826836 122.852724 308.751262 150.398171 231.709103 195.146218 231.786394 167.600771"></polygon>
                <polygon id="Fill-190" fill="#243456" points="231.786394 167.600771 231.709103 195.146218 154.161974 150.398171 154.240983 122.854441"></polygon>
                <polygon id="Fill-193" fill="url(#linearGradient-9)" points="308.826836 122.852724 231.786394 167.600771 154.240983 122.854441 231.283142 78.1081104"></polygon>
                <polyline id="Stroke-197" stroke="#FFFFFF" stroke-width="0.5" stroke-linecap="round" stroke-linejoin="round" points="155.115909 123.551403 232.332377 168.562098 309.047727 123.551403"></polyline>
                <line x1="232.700506" y1="168.562098" x2="232.647222" y2="195.805413" id="Stroke-198" stroke="#FFFFFF" stroke-width="0.5" stroke-linecap="round" stroke-linejoin="round"></line>
                <polygon id="Fill-199" fill="#243456" points="308.826836 95.5321591 308.751262 123.075889 231.709103 167.823936 231.786394 140.280206"></polygon>
                <polygon id="Fill-202" fill="#243456" points="231.786394 140.280206 231.709103 167.823936 154.161974 123.077606 154.240983 95.5338758"></polygon>
                <polygon id="Fill-205" fill="#FFFFFF" points="308.826836 95.5321591 231.786394 140.280206 154.240983 95.5338758 231.283142 50.7858288"></polygon>
                <polyline id="Stroke-209" stroke="#FFFFFF" stroke-width="0.5" stroke-linecap="round" stroke-linejoin="round" points="155.115909 95.1235952 232.332377 140.13429 309.047727 95.1235952"></polyline>
                <line x1="232.700506" y1="140.13429" x2="232.647222" y2="167.377606" id="Stroke-210" stroke="#FFFFFF" stroke-width="0.5" stroke-linecap="round" stroke-linejoin="round"></line>
                <polygon id="Fill-211" fill="#243456" points="308.826836 68.2115941 308.751262 95.7570409 231.709103 140.503371 231.786394 112.959641"></polygon>
                <polygon id="Fill-214" fill="#243456" points="232.970485 112.959641 232.893194 140.503371 155.346065 95.7570409 155.425074 68.2115941"></polygon>
                <polygon id="Fill-217" fill="#FFCC00" points="308.826836 68.2115941 231.786394 112.959641 154.240983 68.2115941 231.283142 23.4652638"></polygon>
                <polyline id="Stroke-221" stroke="#FFCC00" stroke-width="0.5" stroke-linecap="round" stroke-linejoin="round" points="155.115909 67.8802797 232.332377 112.890975 309.047727 67.8802797"></polyline>
                <line x1="232.700506" y1="112.890975" x2="232.647222" y2="140.13429" id="Stroke-222" stroke="#FFFFFF" stroke-width="0.5" stroke-linecap="round" stroke-linejoin="round"></line>
                <polygon id="Fill-223" fill="#243456" points="461.795455 324.580096 461.202774 324.915039 460.6084 324.580096 452.160163 319.828195 451.562403 319.493252 442.85 314.589554 443.440987 314.254611 452.155083 319.158309 452.751151 319.493252 461.199387 324.245153"></polygon>
                <path d="M311.496585,335.603512 C311.599403,335.663492 311.690225,335.725187 311.775906,335.790309 C312.694407,336.491225 312.615581,337.497187 311.510294,338.139837 C310.302191,338.844181 308.336666,338.837326 307.130276,338.139837 C305.915318,337.437206 305.908463,336.306142 307.116567,335.603512 C308.225281,334.960862 309.956039,334.907736 311.174424,335.442421 C311.28581,335.492119 311.392054,335.545245 311.496585,335.603512" id="Fill-224" fill="#FFFFFF"></path>
                <polygon id="Fill-226" fill="#FFFFFF" points="348.639005 258.840266 348.039237 259.188154 339.220937 254.094939 338.617742 253.747051 330.058199 248.806359 329.466999 248.461898 330.065053 248.114011 330.657967 248.456757 339.21751 253.399163 339.820705 253.747051"></polygon>
                <path d="M268.307136,284.693472 C268.144342,284.564942 267.962698,284.441553 267.762204,284.323305 C267.556569,284.205058 267.337226,284.098806 267.109314,284.004551 L391.22526,211.870098 C391.391481,212.002056 391.576552,212.128872 391.780473,212.24712 C391.982681,212.363654 392.19517,212.468191 392.417941,212.562447 L330.657281,248.456586 L330.066082,248.113839 L329.466314,248.461727 L330.059227,248.806187 L268.307136,284.693472 Z" id="Fill-228" fill="#243456"></path>
                <path d="M265.176005,286.512599 L267.098689,287.623098 C266.954745,287.760197 266.781669,287.887013 266.579462,288.005261 C266.373827,288.123509 266.147629,288.226332 265.909435,288.312019 L262.792357,286.512599 L265.899154,284.706325 C266.139061,284.792011 266.365259,284.894835 266.572607,285.014797 C266.778242,285.131331 266.951318,285.261574 267.096976,285.396959 L265.176005,286.512599 Z" id="Fill-230" fill="#FFFFFF"></path>
                <path d="M265.909093,288.311848 C266.147286,288.226161 266.373484,288.125051 266.579119,288.00509 C266.781326,287.886842 266.954402,287.760026 267.098347,287.624641 C267.824922,286.942575 267.821495,286.073712 267.096633,285.396788 C266.950975,285.261403 266.777899,285.132873 266.573978,285.014625 C266.36663,284.894664 266.138718,284.79184 265.900525,284.706153 C264.486786,284.205743 262.617224,284.306854 261.400553,285.014625 C259.978246,285.842358 259.985101,287.184211 261.415975,288.010231 C262.632647,288.712861 264.502209,288.813972 265.909093,288.311848" id="Path" fill="#FFFFFF"></path>
                <path d="M268.316732,288.327271 C268.155652,288.455801 267.975721,288.57919 267.775227,288.695724 C267.571306,288.813972 267.353676,288.918509 267.127478,289.014478 C265.047141,289.890196 262.113419,289.789086 260.230149,288.702579 C258.139529,287.494397 258.129248,285.530459 260.204444,284.325705 C262.077433,283.237484 265.018009,283.131233 267.110342,284.003523 C267.338254,284.099492 267.555884,284.205743 267.761518,284.323991 C267.962012,284.440525 268.143656,284.563914 268.30645,284.694157 C269.667066,285.773809 269.66878,287.24762 268.316732,288.327271" id="Path" fill="#243456"></path>
                <polygon id="Fill-234" fill="#243456" points="395.594654 220.634301 509.69105 286.5102 453.314592 319.27849 452.709683 318.928889 508.489801 286.5102 395.599794 221.330076 339.819677 253.747051 339.218195 253.399163"></polygon>
                <path d="M267.774885,288.695038 C267.975378,288.580218 268.155309,288.455116 268.316389,288.326586 L330.481464,324.219011 L329.295637,324.91136 L267.127135,289.015507 C267.353334,288.919538 267.570964,288.813286 267.774885,288.695038" id="Fill-236" fill="#243456"></path>
                <path d="M339.287768,319.10369 L339.890963,319.451577 L339.591079,319.626378 L331.086372,324.567071 L329.898832,325.259419 L315.6295,333.550459 C315.53525,333.490479 315.437574,333.430498 315.334757,333.372231 C315.235366,333.313964 315.132549,333.257411 315.028018,333.202572 L329.295637,324.911531 L330.481464,324.219183 L338.987884,319.27849 L339.287768,319.10369 Z" id="Fill-238" fill="#243456"></path>
                <path d="M304.478103,339.681854 C307.158208,341.229355 311.507381,341.224213 314.168637,339.676712 C316.732215,338.187478 316.826465,335.798534 314.439389,334.240751 C314.348567,334.18077 314.249177,334.12079 314.149787,334.062523 C314.046969,334.004256 313.944152,333.947703 313.837907,333.892863 C311.140666,332.516736 307.010836,332.573289 304.445544,334.062523 C301.782575,335.610024 301.797998,338.134353 304.478103,339.681854" id="Path" fill="#FFFFFF"></path>
                <path d="M315.630356,333.550117 C318.672036,335.488349 318.591496,338.504519 315.375027,340.372488 C312.059168,342.298724 306.628699,342.298724 303.290563,340.372488 C299.942145,338.437683 299.93529,335.298124 303.251149,333.371888 C306.467618,331.503919 311.661607,331.440511 315.027161,333.202229 C315.133406,333.257068 315.23451,333.313621 315.335613,333.371888 C315.438431,333.431869 315.534393,333.490136 315.630356,333.550117" id="Path" fill="#243456"></path>
                <polygon id="Fill-242" fill="#243456" points="396.332539 351.693066 452.110943 319.277805 452.714138 319.625693 396.33768 352.388842 339.591079 319.625693 339.88925 319.452606 339.287768 319.103004 338.987884 319.277805 282.241284 286.512942 338.617742 253.748079 339.220937 254.095967 283.444246 286.512942"></polygon>
                <path d="M393.241679,360.455897 C393.018908,360.550153 392.806419,360.65469 392.605925,360.771224 C392.402004,360.889472 392.218646,361.014574 392.055852,361.146532 L329.897632,325.259247 L331.086886,324.568613 L393.241679,360.455897 Z" id="Fill-246" fill="#243456"></path>
                <path d="M521,290.564772 C520.77513,290.659391 519.980237,290.432304 519.815909,290.564772 L457.779451,255.376889 L458.97991,254.683586 L521,290.564772 Z" id="Fill-246-Copy" fill="#243456"></path>
                <path d="M393.817285,364.457464 C395.249873,365.285197 397.568404,365.283483 398.992424,364.457464 C400.207382,363.751406 400.37703,362.666613 399.50651,361.850876 C399.359139,361.712064 399.182636,361.580106 398.975288,361.461859 C398.767939,361.341897 398.540027,361.239073 398.30012,361.153387 C397.124575,360.735236 395.628583,360.73695 394.458179,361.158528 C394.223413,361.244215 394.002356,361.345325 393.800148,361.461859 C393.594514,361.580106 393.419724,361.712064 393.274066,361.850876 C392.412114,362.666613 392.593758,363.751406 393.817285,364.457464" id="Path" fill="#FFFFFF"></path>
                <path d="M400.716328,361.146532 C402.232883,362.354714 402.058094,364.061592 400.186818,365.148098 C398.111622,366.352853 394.71865,366.352853 392.631458,365.148098 C390.746473,364.061592 390.554548,362.354714 392.055681,361.146532 C392.218475,361.014574 392.401833,360.889472 392.605754,360.772938 C392.806247,360.65469 393.018737,360.550153 393.241507,360.455897 C395.09736,359.672721 397.642089,359.671008 399.509938,360.450756 C399.737849,360.546725 399.957193,360.651263 400.162828,360.771224 C400.366749,360.889472 400.55182,361.014574 400.716328,361.146532" id="Path" fill="#243456"></path>
                <path d="M397.462159,211.858102 C397.696925,211.774129 397.917983,211.674733 398.12019,211.556485 C398.327538,211.436524 398.500614,211.30628 398.647986,211.167468 C399.509938,210.351731 399.330007,209.268652 398.113336,208.566021 C396.682461,207.740002 394.36393,207.740002 392.93991,208.566021 C391.73352,209.268652 391.565585,210.351731 392.436105,211.167468 C392.583477,211.30628 392.761693,211.436524 392.969042,211.556485 C393.172963,211.674733 393.39402,211.774129 393.6305,211.858102 C394.800904,212.276253 396.295182,212.276253 397.462159,211.858102" id="Path" fill="#FFFFFF"></path>
                <path d="M399.864657,211.870098 C399.703577,212.002056 399.518506,212.128872 399.314585,212.24712 C399.115805,212.363654 398.903315,212.468191 398.680544,212.562447 C396.822978,213.347336 394.285103,213.347336 392.418969,212.562447 C392.196198,212.468191 391.983709,212.363654 391.781501,212.24712 C391.575867,212.128872 391.390795,212.002056 391.224574,211.870098 C389.709732,210.66363 389.87424,208.963607 391.745515,207.8771 C393.820712,206.670632 397.21197,206.670632 399.300876,207.875387 C401.18586,208.965321 401.369218,210.66363 399.864657,211.870098" id="Path" fill="#FFFFFF"></path>
                <path d="M395.530907,209.368734 L398.647986,211.168153 C398.500614,211.305252 398.327538,211.437209 398.12019,211.557171 C397.917983,211.673705 397.696925,211.774815 397.462159,211.858788 L395.539475,210.748289 L393.6305,211.858788 C393.39402,211.774815 393.172963,211.673705 392.969042,211.557171 C392.761693,211.437209 392.583477,211.305252 392.436105,211.16644 L395.530907,209.368734 Z" id="Fill-260" fill="#FFFFFF"></path>
                <path d="M313.837736,333.893035 C313.943981,333.947874 314.046798,334.002714 314.149615,334.062694 C314.249005,334.120961 314.348396,334.180942 314.440931,334.240922 L311.776249,335.790137 C311.690567,335.725015 311.598032,335.663321 311.496928,335.60334 C311.392397,335.545073 311.286153,335.491948 311.173054,335.440536 L313.837736,333.893035 Z" id="Fill-262" fill="#FFCC00"></path>
                <polygon id="Fill-265" fill="#434651" points="481.925 271.996174 481.887264 285.826804 395.486364 235.694866 395.525815 221.864237"></polygon>
                <polygon id="Fill-266" fill="#FFFFFF" points="479.556818 271.950874 479.519071 285.826804 395.486364 236.922929 395.525827 223.048729"></polygon>
                <polygon id="Fill-267" fill="#434651" points="396.670455 320.516393 396.630991 334.390975 312.6 285.487482 312.637747 271.6129"></polygon>
                <polygon id="Fill-268" fill="#FFFFFF" points="396.670455 321.746189 396.632718 335.575467 310.231818 285.442178 310.272985 271.6129"></polygon>
                <polygon id="Fill-269" fill="#434651" points="395.486364 221.864237 395.44838 235.694866 309.047727 285.826804 309.087437 271.997898"></polygon>
                <polygon id="Fill-270" fill="#FFFFFF" points="323.362045 278.719852 395.446624 236.890598 395.486364 223.048729 311.415909 271.834286"></polygon>
                <polygon id="Path" fill="#FFFFFF" points="395.760111 319.982768 479.530144 271.612045 395.212617 223.241321 311.43914 271.613755"></polygon>
                <polygon id="Path" fill="#FFFFFF" points="395.204008 221.864237 481.925 271.612045 395.766997 321.361563 309.047727 271.613755"></polygon>
                <polygon id="Fill-272" fill="#434651" points="479.556818 271.612041 395.761914 320.177071 311.415909 271.613759 395.212535 223.048729"></polygon>
                <polygon id="Fill-273" fill="#FFFFFF" points="479.556818 271.6129 479.518824 285.488447 395.486364 334.390975 395.527812 320.515428"></polygon>
                <polygon id="Fill-274" fill="#FFFFFF" points="481.925 271.6129 481.887016 285.443529 395.486364 335.575467 395.524347 321.746561"></polygon>
                <polygon id="Fill-275" fill="#2D3138" points="491.397727 271.6129 491.360005 285.353007 396.670455 340.313435 396.708177 326.57504"></polygon>
                <polygon id="Path" fill="#434651" points="396.359699 322.116383 482.454955 272.204288 395.79712 222.293909 309.703583 272.206004"></polygon>
                <polygon id="Path" fill="#434651" points="395.767872 217.126269 491.397727 272.204288 396.390666 327.284023 300.759091 272.206004"></polygon>
                <polygon id="Fill-277" fill="#2D3138" points="396.670455 326.574698 396.632509 340.313435 300.759091 285.35335 300.798761 271.6129"></polygon>
                <polygon id="Fill-278" fill="#243456" points="472.276038 244.003937 472.19703 271.547667 395.15487 316.295714 395.232161 288.751984"></polygon>
                <polygon id="Fill-281" fill="#243456" points="395.232161 288.751984 395.15487 316.295714 317.609459 271.547667 317.688468 244.003937"></polygon>
                <polygon id="Fill-284" fill="url(#linearGradient-10)" points="472.276038 244.003937 395.232161 288.751984 317.688468 244.003937 394.72891 199.25589"></polygon>
                <polyline id="Stroke-288" stroke="#FFFFFF" stroke-width="0.5" stroke-linecap="round" stroke-linejoin="round" points="318.520455 245.554076 395.735212 290.564772 472.452273 245.554076"></polyline>
                <line x1="394.92096" y1="288.195788" x2="394.867676" y2="315.439103" id="Stroke-289" stroke="#FFFFFF" stroke-width="0.5" stroke-linecap="round" stroke-linejoin="round"></line>
                <polygon id="Fill-290" fill="#243456" points="472.276038 216.673072 472.19703 244.216802 395.15487 288.964849 395.232161 261.421119"></polygon>
                <polygon id="Fill-293" fill="#243456" points="395.232161 261.421119 395.15487 288.964849 317.609459 244.218519 317.688468 216.674789"></polygon>
                <polygon id="Fill-296" fill="#FFFFFF" points="472.276038 216.673072 395.232161 261.421119 317.688468 216.674789 394.72891 171.926742"></polygon>
                <polyline id="Stroke-300" stroke="#FFFFFF" stroke-width="0.5" stroke-linecap="round" stroke-linejoin="round" points="318.520455 215.941777 395.735212 260.952472 472.452273 215.941777"></polyline>
                <line x1="394.92096" y1="260.952472" x2="394.867676" y2="288.195788" id="Stroke-301" stroke="#FFFFFF" stroke-width="0.5" stroke-linecap="round" stroke-linejoin="round"></line>
                <polygon id="Fill-302" fill="#243456" points="472.276038 188.168015 472.19703 215.711745 395.15487 260.459792 395.232161 232.916062"></polygon>
                <polygon id="Fill-305" fill="#243456" points="395.232161 232.916062 395.15487 260.459792 317.609459 215.713462 317.688468 188.168015"></polygon>
                <polygon id="Fill-308" fill="url(#linearGradient-11)" points="472.276038 188.168015 395.232161 232.916062 317.688468 188.168015 394.72891 143.419968"></polygon>
                <polyline id="Stroke-312" stroke="#FFFFFF" stroke-width="0.5" stroke-linecap="round" stroke-linejoin="round" points="318.520455 188.698462 395.735212 233.709157 472.452273 188.698462"></polyline>
                <line x1="394.92096" y1="233.709157" x2="394.867676" y2="260.952472" id="Stroke-313" stroke="#FFFFFF" stroke-width="0.5" stroke-linecap="round" stroke-linejoin="round"></line>
                <polygon id="Fill-314" fill="#243456" points="472.276038 160.953883 472.19703 188.497613 395.15487 233.24566 395.232161 205.700213"></polygon>
                <polygon id="Fill-317" fill="#243456" points="395.232161 205.700213 395.15487 233.24566 317.609459 188.49933 317.688468 160.953883"></polygon>
                <polygon id="Fill-320" fill="#FFCC00" points="472.276038 160.953883 395.232161 205.700213 317.688468 160.953883 394.72891 116.205836"></polygon>
                <polyline id="Stroke-324" stroke="#FFFFFF" stroke-width="0.5" stroke-linecap="round" stroke-linejoin="round" points="318.520455 161.455146 395.735212 206.465841 472.452273 161.455146"></polyline>
                <line x1="394.92096" y1="206.465841" x2="394.867676" y2="233.709157" id="Stroke-325" stroke="#FFFFFF" stroke-width="0.5" stroke-linecap="round" stroke-linejoin="round"></line>
                <path d="M280.765677,64.2046411 C283.728013,65.90641 283.743398,68.6683811 280.801574,70.3718518 L238.17675,95.0304841 C235.233216,96.7339549 230.446983,96.7339549 227.484647,95.0304841 L184.581196,70.3718518 C181.620569,68.6683811 181.603475,65.9081118 184.547008,64.2046411 L227.170123,39.544307 C230.113656,37.842538 234.899889,37.842538 237.862226,39.544307 L280.765677,64.2046411 Z" id="Fill-418" fill="#243456"></path>
                <g id="Group-422" transform="translate(279.445455, 27.607552)">
                    <mask id="mask-13" fill="white">
                        <use xlink:href="#path-12"></use>
                    </mask>
                    <g id="Clip-421"></g>
                    <path d="M0.760186364,4.00529382 L0.687364773,29.4485764 C2.20596136,28.5982427 2.96437159,27.4861364 2.9697,26.3706081 L2.9697,26.3706081 L3.04429773,0.927325609 C3.04074545,2.04285383 2.28055909,3.15496019 0.760186364,4.00529382" id="Fill-420" fill="url(#linearGradient-14)" mask="url(#mask-13)"></path>
                </g>
                <g id="Group-425" transform="translate(181.165909, 27.607552)">
                    <mask id="mask-16" fill="white">
                        <use xlink:href="#path-15"></use>
                    </mask>
                    <g id="Clip-424"></g>
                    <path d="M0.0662982525,26.3278348 C0.0631515152,27.4570505 0.749924242,28.5879771 2.12662727,29.4502873 L2.12662727,29.4502873 L2.19451515,4.00529382 C0.817812121,3.14469459 0.129460606,2.01376797 0.132618182,0.884552288 L0.132618182,0.884552288 L0.0662982525,26.3278348 Z" id="Fill-423" fill="url(#linearGradient-17)" mask="url(#mask-16)"></path>
                </g>
                <polygon id="Fill-426" fill="url(#linearGradient-18)" points="237.673095 57.5268722 237.59868 82.7744372 280.752782 58.1720255 280.823736 32.9244605"></polygon>
                <polygon id="Fill-429" fill="url(#linearGradient-19)" points="183.701959 58.1737233 227.139878 82.7744372 227.210833 57.5268722 183.776374 32.9244605"></polygon>
                <path d="M226.563955,56.3001287 L226.494601,82.2039231 C229.42438,83.9458231 234.162435,83.9458231 237.073607,82.2039231 L237.073607,82.2039231 L237.146344,56.3001287 C234.231789,58.0437706 229.495425,58.0437706 226.563955,56.3001287" id="Fill-432" fill="url(#linearGradient-20)"></path>
                <path d="M280.264544,26.2196042 C283.239986,27.9399378 283.255439,30.7320392 280.300599,32.4540931 L237.487187,57.3817268 C234.530631,59.1037807 229.723222,59.1037807 226.747779,57.3817268 L183.656224,32.4540931 C180.680781,30.7320392 180.665329,27.9416581 183.620168,26.2196042 L226.431863,1.29025019 C229.38842,-0.430083397 234.197546,-0.430083397 237.172989,1.29025019 L280.264544,26.2196042 Z" id="Fill-435" fill="#DEE7FF"></path>
                <path d="M270.092066,57.5922957 C271.067283,57.0280262 271.860506,55.6569204 271.857083,54.5352629 C271.853638,53.411885 271.056982,52.962878 270.081764,53.5271474 L251.621313,64.2069783 C250.644379,64.7695274 249.851157,66.1406333 249.854579,67.2640111 C249.858024,68.3856686 250.656398,68.836396 251.631615,68.2721266 L270.092066,57.5922957 L270.092066,57.5922957 Z" id="Path" fill="#7E819E"></path>
                <path d="M270.07833,52.8304123 C271.386632,52.0734655 272.457998,52.6807433 272.463157,54.1860352 C272.466583,55.691327 271.402085,57.532084 270.093783,58.2890308 L251.635049,68.9671413 C250.326747,69.7240881 249.255381,69.1185307 249.250222,67.6132388 C249.246797,66.1079469 250.311294,64.2654696 251.61788,63.5102432 L270.07833,52.8304123 Z" id="Path" fill="#7E819E"></path>
                <path d="M270.083653,54.5750026 C270.557526,54.2997492 270.945553,54.5165112 270.947275,55.061857 C270.948987,55.6072027 270.562677,56.2695312 270.088804,56.5447845 L251.628353,67.2246155 C251.15448,67.4981485 250.766447,67.2831068 250.766447,66.7360407 C250.764736,66.190695 251.149329,65.5283665 251.623202,65.2548335 L270.083653,54.5750026 Z" id="Fill-440" fill="#2E2F44"></path>
                <path d="M270.063565,47.4289089 C270.537438,47.1553758 270.925465,47.3704175 270.927187,47.9157633 C270.928898,48.4628294 270.542589,49.1251578 270.068716,49.3986908 L251.608265,60.0785218 C251.134392,60.3520548 250.746359,60.1370131 250.746359,59.5916674 C250.744648,59.0446013 251.129241,58.3822728 251.603114,58.1087398 L270.063565,47.4289089 Z" id="Fill-442" fill="#2E2F44"></path>
                <path d="M270.071978,50.446374 C271.047195,49.8821046 271.840418,48.512719 271.836995,47.3893412 C271.83355,46.2659634 271.036893,45.8169563 270.061676,46.3812257 L251.599508,57.0610566 C250.624291,57.6253261 249.831069,58.9947116 249.834491,60.1180894 C249.837936,61.2397469 250.63631,61.6904743 251.611527,61.1262049 L270.071978,50.446374 L270.071978,50.446374 Z" id="Path" fill="#7E819E"></path>
                <path d="M270.058242,45.6844906 C271.366544,44.9275439 272.43791,45.5348216 272.441362,47.0401135 C272.446494,48.5454054 271.381997,50.3861623 270.073695,51.1431091 L251.614961,61.82294 C250.306659,62.5781665 249.235293,61.9743294 249.230134,60.4673172 C249.226709,58.9620253 250.291206,57.1212683 251.597791,56.3643215 L270.058242,45.6844906 Z" id="Path" fill="#7E819E"></path>
                <polygon id="Fill-446" fill="#2E2F44" points="188.353406 48.6873329 188.339671 53.3545979 195.087213 57.2580348 195.100948 52.5907698"></polygon>
                <polygon id="Fill-448" fill="#2E2F44" points="188.372636 41.7010582 188.3589 46.3683232 195.106442 50.2717601 195.120178 45.6044951"></polygon>
                <path d="M203.063734,59.2066567 C202.777007,59.0397843 202.545221,59.17225 202.543504,59.5025541 C202.543504,59.8345785 202.773573,60.2336958 203.060301,60.4005682 L219.726558,70.0413176 C220.013285,70.20819 220.245081,70.074004 220.245081,69.7436999 C220.246788,69.4133959 220.016719,69.0125581 219.728275,68.8474061 L203.063734,59.2066567 Z" id="Fill-450" fill="#2E2F44"></path>
                <path d="M203.071289,56.7027112 C202.784561,56.5358388 202.551049,56.6751858 202.551049,57.0072102 C202.549342,57.3375143 202.781127,57.738352 203.067855,57.903504 L219.732395,67.5442534 C220.02084,67.7111258 220.250909,67.5786601 220.252635,67.2466357 C220.254343,66.9163317 220.024274,66.5103329 219.735829,66.3434606 L203.071289,56.7027112 Z" id="Fill-452" fill="#2E2F44"></path>
                <path d="M203.063734,52.4665617 C202.777007,52.2996894 202.545221,52.4321551 202.543504,52.7624591 C202.543504,53.0944835 202.773573,53.4936009 203.060301,53.6604732 L219.726558,63.3012227 C220.013285,63.468095 220.245081,63.333909 220.245081,63.003605 C220.246788,62.6733009 220.016719,62.2724632 219.728275,62.1073112 L203.063734,52.4665617 Z" id="Fill-454" fill="#2E2F44"></path>
                <path d="M203.071289,49.9624442 C202.784561,49.7955718 202.551049,49.9366392 202.551049,50.2669432 C202.549342,50.5989676 202.781127,50.998085 203.067855,51.1649573 L219.732395,60.8039864 C220.02084,60.9708588 220.250909,60.8383931 220.252635,60.5063687 C220.254343,60.1760647 220.024274,59.7700659 219.735829,59.6031936 L203.071289,49.9624442 Z" id="Fill-456" fill="#2E2F44"></path>
                <g id="Group-461" transform="translate(207.215909, 14.578141)">
                    <mask id="mask-22" fill="white">
                        <use xlink:href="#path-21"></use>
                    </mask>
                    <g id="Clip-460"></g>
                    <polygon id="Fill-459" fill="url(#linearGradient-23)" mask="url(#mask-22)" points="0.0311021212 14.835762 24.9391648 29.5966224 49.6859939 14.835762 24.7779311 0.0766435986"></polygon>
                </g>
                <polygon id="Fill-462" fill="#2E2F44" points="277.256516 29.3757881 274.209983 31.1442673 271.14456 29.3757881 274.191093 27.605592"></polygon>
                <polygon id="Fill-464" fill="#2E2F44" points="235.24751 5.12684879 232.202695 6.89704489 229.135555 5.12684879 232.182087 3.3566527"></polygon>
                <polygon id="Fill-466" fill="#2E2F44" points="235.520908 53.6245558 232.476093 55.3947519 229.408953 53.6245558 232.455485 51.8543597"></polygon>
                <polygon id="Fill-468" fill="#2E2F44" points="193.511903 29.3757881 190.467087 31.1459842 187.401664 29.3757881 190.44648 27.607309"></polygon>
                <polygon id="Path" fill="#2E2F44" points="232.410835 43.9247053 257.451135 29.3751014 232.247689 14.8272143 207.205672 29.3751014"></polygon>
                <polygon id="Path" fill="#2E2F44" points="232.225364 10.891919 264.244868 29.3751014 232.43316 47.8600006 200.411938 29.3751014"></polygon>
                <path d="M443.678425,156.847248 C446.65283,158.564218 446.670004,161.350861 443.714489,163.069548 L400.8913,187.948443 C397.934069,189.66713 393.125562,189.66713 390.149439,187.948443 L347.046327,163.069548 C344.070204,161.350861 344.054748,158.565935 347.01198,156.847248 L389.833452,131.968353 C392.790683,130.249666 397.59919,130.249666 400.575313,131.966636 L443.678425,156.847248 Z" id="Fill-472" fill="#243456"></path>
                <path d="M443.354423,125.100455 L443.279825,150.545448 C444.798422,149.693404 445.558608,148.581298 445.563936,147.46748 L445.563936,147.46748 L445.636758,122.022487 C445.633206,123.138015 444.874795,124.250121 443.354423,125.100455" id="Fill-475" fill="url(#linearGradient-24)"></path>
                <path d="M344.535512,147.422996 C344.531972,148.552212 345.306367,149.683138 346.855158,150.545448 L346.855158,150.545448 L346.929756,125.102166 C345.380965,124.239856 344.606569,123.108929 344.610122,121.981424 L344.610122,121.981424 L344.535512,147.422996 Z" id="Fill-478" fill="url(#linearGradient-25)"></path>
                <polygon id="Fill-481" fill="url(#linearGradient-26)" points="400.824974 149.83066 400.752289 175.078225 443.906391 150.477511 443.979076 125.228249"></polygon>
                <polygon id="Fill-484" fill="url(#linearGradient-27)" points="346.200421 150.477511 389.128585 175.078225 389.198709 149.83066 346.272256 125.229946"></polygon>
                <path d="M389.723224,149.786158 L389.65387,175.689953 C392.585341,177.431853 397.320013,177.431853 400.232877,175.689953 L400.232877,175.689953 L400.303922,149.786158 C397.39275,151.5298 392.654695,151.5298 389.723224,149.786158" id="Fill-487" fill="url(#linearGradient-28)"></path>
                <path d="M443.420821,118.522758 C446.396263,120.243091 446.411716,123.035193 443.456876,124.755526 L400.643464,149.68488 C397.686908,151.406934 392.879499,151.406934 389.904056,149.68488 L346.810784,124.757247 C343.837058,123.035193 343.819889,120.244812 346.776446,118.522758 L389.58814,93.5951239 C392.544697,91.87307 397.353823,91.87307 400.327549,93.5934036 L443.420821,118.522758 Z" id="Fill-490" fill="#DEE7FF"></path>
                <path d="M433.248343,149.895277 C434.22356,149.331008 435.016783,147.959902 435.01336,146.838244 C435.009915,145.714866 434.213259,145.265859 433.236324,145.830129 L414.775874,156.50996 C413.802373,157.074229 413.009151,158.443615 413.010865,159.566992 C413.014302,160.68865 413.812675,161.139377 414.787892,160.575108 L433.248343,149.895277 L433.248343,149.895277 Z" id="Path" fill="#7E819E"></path>
                <path d="M433.234608,145.133394 C434.54291,144.376447 435.614275,144.983725 435.619434,146.489017 C435.62286,147.994308 434.558362,149.835065 433.25006,150.592012 L414.789609,161.270123 C413.481307,162.02707 412.409942,161.421512 412.406489,159.91622 C412.401357,158.410928 413.467572,156.568451 414.774157,155.813225 L433.234608,145.133394 Z" id="Path" fill="#7E819E"></path>
                <path d="M433.240102,146.877984 C433.713975,146.602731 434.102001,146.817772 434.103724,147.364838 C434.105435,147.910184 433.719126,148.572513 433.245253,148.847766 L414.784802,159.527597 C414.312645,159.80113 413.922902,159.586088 413.921179,159.039022 C413.919468,158.493676 414.305778,157.831348 414.779651,157.557815 L433.240102,146.877984 Z" id="Fill-494" fill="#2E2F44"></path>
                <path d="M433.219842,139.732062 C433.693715,139.458529 434.081742,139.673571 434.083464,140.218917 C434.085176,140.765983 433.698866,141.428311 433.224993,141.701844 L414.764542,152.381675 C414.292386,152.655208 413.902642,152.440167 413.900919,151.894821 C413.899208,151.347755 414.285518,150.685426 414.759391,150.411893 L433.219842,139.732062 Z" id="Fill-496" fill="#2E2F44"></path>
                <path d="M433.228255,142.749355 C434.203472,142.185086 434.996695,140.8157 434.993272,139.692323 C434.989827,138.568945 434.193171,138.119938 433.216236,138.684207 L414.755785,149.364038 C413.780568,149.928307 412.989063,151.297693 412.990777,152.421071 C412.994213,153.542728 413.792587,153.993456 414.767804,153.429186 L433.228255,142.749355 L433.228255,142.749355 Z" id="Path" fill="#7E819E"></path>
                <path d="M433.214519,137.987472 C434.522821,137.230525 435.594187,137.837803 435.599346,139.343095 C435.602772,140.848387 434.538274,142.689144 433.229972,143.44609 L414.769521,154.125921 C413.461219,154.881148 412.389853,154.277311 412.386401,152.770299 C412.381269,151.265007 413.447483,149.42425 414.754069,148.667303 L433.214519,137.987472 Z" id="Path" fill="#7E819E"></path>
                <polygon id="Fill-500" fill="#2E2F44" points="351.509683 140.990314 351.495948 145.657579 358.24349 149.561016 358.257225 144.893751"></polygon>
                <polygon id="Fill-502" fill="#2E2F44" points="351.528226 134.00404 351.516207 138.671305 358.26375 142.574742 358.277485 137.907477"></polygon>
                <path d="M366.221042,151.50981 C365.932597,151.342938 365.700811,151.475403 365.699094,151.805707 C365.699094,152.137732 365.929163,152.536849 366.215891,152.703722 L382.882148,162.344471 C383.168876,162.511343 383.400662,162.377157 383.402378,162.046853 C383.402378,161.716549 383.17231,161.315712 382.885582,161.15056 L366.221042,151.50981 Z" id="Fill-504" fill="#2E2F44"></path>
                <path d="M366.227738,149.005693 C365.939293,148.83882 365.707507,148.978167 365.70579,149.310192 C365.70579,149.640496 365.935859,150.041333 366.224304,150.206485 L382.888844,159.847235 C383.175572,160.014107 383.407358,159.881641 383.409084,159.549617 C383.410791,159.219313 383.179006,158.813314 382.892278,158.646442 L366.227738,149.005693 Z" id="Fill-506" fill="#2E2F44"></path>
                <path d="M366.221042,144.769543 C365.932597,144.602671 365.700811,144.735136 365.699094,145.067161 C365.699094,145.397465 365.929163,145.796582 366.215891,145.963455 L382.882148,155.604204 C383.168876,155.771076 383.400662,155.63689 383.402378,155.306586 C383.402378,154.976282 383.17231,154.575445 382.885582,154.410293 L366.221042,144.769543 Z" id="Fill-508" fill="#2E2F44"></path>
                <path d="M366.227738,142.265426 C365.939293,142.098553 365.707507,142.2379 365.70579,142.569925 C365.70579,142.901949 365.935859,143.301066 366.224304,143.467939 L382.888844,153.106968 C383.175572,153.27384 383.407358,153.141374 383.409084,152.80935 C383.410791,152.479046 383.179006,152.073047 382.892278,151.906175 L366.227738,142.265426 Z" id="Fill-510" fill="#2E2F44"></path>
                <polygon id="Fill-513" fill="url(#linearGradient-29)" points="370.40716 121.981424 395.315223 136.478158 420.062052 121.981424 395.152292 107.482979"></polygon>
                <polygon id="Fill-516" fill="#2E2F44" points="440.184851 121.650704 437.147729 123.417303 434.088338 121.650704 437.127173 119.88239"></polygon>
                <polygon id="Fill-518" fill="#2E2F44" points="398.281987 97.4275487 395.244865 99.1958625 392.187187 97.4275487 395.226022 95.6592348"></polygon>
                <polygon id="Fill-520" fill="#2E2F44" points="398.554694 145.873688 395.517572 147.642002 392.458181 145.873688 395.497017 144.105375"></polygon>
                <polygon id="Fill-522" fill="#2E2F44" points="356.653372 121.650704 353.61625 123.419018 350.556859 121.650704 353.595694 119.884106"></polygon>
                <polygon id="Path" fill="#2E2F44" points="395.453164 136.184152 420.430196 121.650018 395.288718 107.1176 370.311685 121.650018"></polygon>
                <polygon id="Path" fill="#2E2F44" points="395.268162 103.186489 427.206764 121.650018 395.475433 140.115263 363.535117 121.650018"></polygon>
            </g>
        </g>
    </g>
</svg>